{"title":"Jakkanna Telugu 2016 DesiSCR x264-HDF.mp4","uid":15681042,"size":888579422,"categoryP":"video","categoryS":"movies","magnet":"?xt=urn:btih:1a2591740e8e62c6522afedefc34ccbe0c25eea7&amp;dn=Jakkanna+Telugu+2016+DesiSCR+x264-HDF.mp4&amp;tr=udp%3A%2F%2Ftracker.leechers-paradise.org%3A6969&amp;tr=udp%3A%2F%2Fzer0day.ch%3A1337&amp;tr=udp%3A%2F%2Fopen.demonii.com%3A1337&amp;tr=udp%3A%2F%2Ftracker.coppersurfer.tk%3A6969&amp;tr=udp%3A%2F%2Fexodus.desync.com%3A6969","seeders":9,"leechers":0,"uploader":null,"files":1,"time":1472318472,"description":"http://www.movierulzfull.in/ presents:\r\n\r\nJakkanna Telugu 2016 DesiSCR x264-HDF.mp4\r\n\r\nScreens:\r\n \nhttp://extraimago.com/images/2016/08/27/wSQs.png \nhttp://extraimago.com/images/2016/08/27/wSQ7.png \nhttp://extraimago.com/images/2016/08/27/wSQc.png \nhttp://extraimago.com/images/2016/08/27/wSQ1.png \nhttp://extraimago.com/images/2016/08/27/wSQE.png\r\n\r\nInfo:\r\n\r\n\r\nFormat : MPEG-4\r\nFormat profile : Base Media\r\nCodec ID : isom (isom/iso2/avc1/mp41)\r\nFile size : 847 MiB\r\nDuration : 2 h 10 min\r\nOverall bit rate : 911 kb/s\r\nWriting application : Lavf57.29.101\r\n\r\nVideo\r\nID : 1\r\nFormat : AVC\r\nFormat/Info : Advanced Video Codec\r\nFormat profile :   \r\nFormat settings, CABAC : Yes\r\nFormat settings, ReFrames : 4 frames\r\nCodec ID : avc1\r\nCodec ID/Info : Advanced Video Coding\r\nDuration : 2 h 10 min\r\nBit rate : 776 kb/s\r\nWidth : 640 pixels\r\nHeight : 288 pixels\r\nDisplay aspect ratio : 2.222\r\nFrame rate mode : Constant\r\nFrame rate : 25.000 FPS\r\nColor space : YUV\r\nChroma subsampling : 4:2:0\r\nBit depth : 8 bits\r\nScan type : Progressive\r\nBits/(Pixel*Frame) : 0.168\r\nStream size : 722 MiB (85%)\r\nWriting library : x264 core 142 r2479 dd79a61\r\nEncoding settings : cabac=1 / ref=1 / deblock=1:0:0 / analyse=0x1:0x111 / me=hex / subme=2 / psy=1 / psy_rd=1.00:0.00 / mixed_ref=0 / me_range=16 / chroma_me=1 / trellis=0 / 8x8dct=0 / cqm=0 / deadzone=21,11 / fast_pskip=1 / chroma_qp_offset=0 / threads=6 / lookahead_threads=2 / sliced_threads=0 / nr=0 / decimate=1 / interlaced=0 / bluray_compat=0 / constrained_intra=0 / bframes=3 / b_pyramid=2 / b_adapt=1 / b_bias=0 / direct=1 / weightb=1 / open_gop=0 / weightp=1 / keyint=250 / keyint_min=25 / scenecut=40 / intra_refresh=0 / rc_lookahead=10 / rc=crf / mbtree=1 / crf=20.0 / qcomp=0.60 / qpmin=0 / qpmax=69 / qpstep=4 / vbv_maxrate=20000 / vbv_bufsize=25000 / crf_max=0.0 / nal_hrd=none / filler=0 / ip_ratio=1.40 / aq=1:1.00\r\nColor range : Limited\r\nColor primaries : BT.709\r\nTransfer characteristics : BT.709\r\nMatrix coefficients : BT.709\r\n\r\nAudio\r\nID : 2\r\nFormat : AAC\r\nFormat/Info : Advanced Audio Codec\r\nFormat profile : LC\r\nCodec ID : 40\r\nDuration : 2 h 9 min\r\nBit rate mode : Constant\r\nBit rate : 128 kb/s\r\nChannel(s) : 2 channels\r\nChannel positions : Front: L R\r\nSampling rate : 48.0 kHz\r\nFrame rate : 46.875 FPS (1024 spf)\r\nCompression mode : Lossy\r\nStream size : 119 MiB (14%)\r\nTitle : Stereo\r\nDefault : Yes\r\nAlternate group : 1 \r\n \nhttp://www.movierulzfull.in/jakkanna-full-movie-watch/\r\n \nhttp://tvmoviereviews.drupalgardens.com/content/jakkanna-review-0","torrent":{"xt":"urn:btih:1a2591740e8e62c6522afedefc34ccbe0c25eea7","amp;dn":"Jakkanna+Telugu+2016+DesiSCR+x264-HDF.mp4","amp;tr":["udp%3A%2F%2Ftracker.leechers-paradise.org%3A6969","udp%3A%2F%2Fzer0day.ch%3A1337","udp%3A%2F%2Fopen.demonii.com%3A1337","udp%3A%2F%2Ftracker.coppersurfer.tk%3A6969","udp%3A%2F%2Fexodus.desync.com%3A6969"],"infoHash":"1a2591740e8e62c6522afedefc34ccbe0c25eea7","infoHashBuffer":{"type":"Buffer","data":[26,37,145,116,14,142,98,198,82,42,254,222,252,52,204,190,12,37,238,167]},"announce":[],"urlList":[]}}